# xmcd
#
# Track frame offsets:
#	150
#	11591
#	23850
#	41906
#	56097
#	67722
#	80441
#	90385
#	100169
#	112340
#	123439
#	134326
#	145875
#	165777
#	177663
#	188384
#	198566
#	209655
#
# Disc length: 2938 seconds
#
# Revision: 1
# Processed by: cddbd v1.5.2PL0 Copyright (c) Steve Scherf et al.
# Submitted via: audiograbber 1.83.01
#
DISCID=fa0b7812
DTITLE=John Lee Hooker - Boom Boom
DYEAR=2005
DGENRE=Blues
TTITLE0=Boom boom
TTITLE1=Crawlin Kingsnake
TTITLE2=Sally Mae
TTITLE3=Hobo Blues
TTITLE4=Boogie Chillun
TTITLE5=Baby Lee
TTITLE6=Want ad blues
TTITLE7=Dimples
TTITLE8=I'm in the mood
TTITLE9=This is hip
TTITLE10=Bottle up and go
TTITLE11=I love you honey
TTITLE12=Nightmare
TTITLE13=I'm mad again
TTITLE14=Send me your pillow
TTITLE15=Big legs, tight skirt
TTITLE16=What do you say
TTITLE17=No shoes
EXTD=Rerelease best of 2005
EXTT0=
EXTT1=
EXTT2=
EXTT3=
EXTT4=
EXTT5=
EXTT6=
EXTT7=
EXTT8=
EXTT9=
EXTT10=
EXTT11=
EXTT12=
EXTT13=
EXTT14=
EXTT15=
EXTT16=
EXTT17=
PLAYORDER=
